<?xml version="1.0" encoding="utf-8"?>
<!-- Generator: Adobe Illustrator 22.0.1, SVG Export Plug-In . SVG Version: 6.00 Build 0)  -->
<svg version="1.0" id="ÉåÉCÉÑÅ_x5B__2" xmlns="http://www.w3.org/2000/svg" xmlns:xlink="http://www.w3.org/1999/xlink"
	 x="0px" y="0px" viewBox="0 0 534.5 428.6" enable-background="new 0 0 534.5 428.6" xml:space="preserve">
<g>
	<polygon fill="#B2783A" points="19.8,90.4 0,55.2 145.6,3.6 205,102.4 203.8,137.2 	"/>
	<polygon fill="#BE894A" points="204,102.3 401.2,144.4 485.9,105.7 505.7,53.1 244.6,3.4 	"/>
	<polygon fill="#68370A" points="205,101.1 203.9,137.5 278.8,155.7 336.4,227.4 402.1,143.2 	"/>
	<polygon fill="#68370A" points="205,101.1 157.1,124 208.6,135.8 	"/>
	<rect x="204.2" y="102.4" fill="#4D2908" width="1.7" height="43.3"/>
	<path fill="#4D4D4D" d="M339.1,245.4c8.9-13.8,15.9-28.1,20.1-42.8c2.2-7.7,3.1-13.7,2.2-20.4c-0.8-6.6-2.7-13.5-5.4-20.8
		c-2.6-7.4-5.8-15.3-8.3-24.1c-1.2-4.4-2.3-9.3-2.7-14c-0.5-5.7-0.4-10.7,0.7-16.3c1-5.5,3-11.2,6.7-16.7
		c3.7-5.5,9.9-10.6,17.4-12.7c9.7-2.6,35,2.3,28.5,17.8c-6.1,14.4-24,7.3-24.5,26.9c-0.6,20.4,11.6,38.7,10.4,59.5
		c-0.3,4.9-1,9.9-2.4,14.7c-1.4,5-3.3,8.8-5.3,12.9c-8.1,15.9-19.5,29.5-33,39.8c-1.3,1-3.1,0.7-4.1-0.5
		C338.5,247.7,338.5,246.4,339.1,245.4z"/>
	<path fill="#1A1A1A" d="M368.6,94.9c3.2,0.3,6.3-0.2,9.2-2l0.1-0.1c0.4-0.4,0.4-0.9,0.1-1.3c-2.1-2.5-3.9-4.3-5.3-6
		c-1.4-1.7-2.4-3.1-3.2-4.4c-0.7-1-1.2-1.9-1.9-2.9c-4.6,1.7-8.8,4.5-12,7.8c1,1.8,2.2,3.4,3.8,4.8
		C362.2,93.2,365.4,94.6,368.6,94.9z"/>
	<path fill="#1A1A1A" d="M367.6,106.6c-2.2-0.9-4.4-1.8-7.3-3.2l0,0c-0.1,0-0.2-0.1-0.3-0.1c-0.5,0-0.9,0.3-0.9,0.8
		c-0.3,3.4,1,6.6,3,9.2c1.9,2.7,4.6,4.7,7.4,6.1c1.4,0.7,2.9,1.3,4.4,1.6c0.4-5,1.9-8.1,4.2-10.3c-1.3-0.6-2.6-1.2-3.9-1.6
		L367.6,106.6z"/>
	<path fill="#1A1A1A" d="M351.2,125.1c-2-0.8-4.1-1.5-6.2-2.2c0,0.1,0,0.2,0,0.4c0.3,3.5,1.1,7.1,1.9,10.6c4.3,3.1,9.2,5.4,14.5,6.8
		c4.8,1.3,9.9,1.8,15,1.2c-0.8-3.1-1.4-6.2-1.9-9.4c-3.4-0.6-6.7-1.4-9.9-2.5C360.1,128.5,355.7,126.8,351.2,125.1z"/>
	<path fill="#1A1A1A" d="M368.9,152.2l-0.2,0.1c-0.4,0.3-0.5,0.9-0.1,1.2c3.3,4,8,5.4,12.3,5.7c0.1,0,0.2,0,0.2,0
		c-0.9-3.2-1.8-6.5-2.7-9.7C375.5,150,372.6,150.7,368.9,152.2L368.9,152.2z"/>
	<path fill="#1A1A1A" d="M372.5,175.8c2.5-1,5-3,5.9-5.5c0.1-0.1,0.1-0.3,0-0.5c-0.1-0.4-0.5-0.7-0.9-0.6l-0.1,0
		c-2.4,0.5-4.3,0.5-6.2,0.3c-1.9-0.2-3.8-0.5-5.8-0.9c-2.4-0.4-4.6-1.1-7.2-1c1,3.2,1.8,6.2,2.4,9.2c1.4,0.2,2.7,0.3,4.1,0.4
		C367.2,177.3,369.9,176.9,372.5,175.8z"/>
	<path fill="#1A1A1A" d="M369.8,197.3c-3.2,1.4-6.3,2.7-9.5,3.4c-0.2,0-0.4,0.1-0.6,0.1c-0.2,0.6-0.3,1.1-0.4,1.7
		c-0.7,2.4-1.6,4.8-2.4,7.2c0.9,0.4,1.8,0.8,2.8,1c5.1,1.2,10.3,0.6,14.9-0.8c0.7-0.2,1.3-0.5,1.9-0.7c1.9-4,3.8-7.8,5.2-12.7
		c0.5-1.6,0.8-3.3,1.1-4.9c-1,0.3-2.1,0.7-3,1.1C376.1,194,373,195.8,369.8,197.3z"/>
	<path fill="#1A1A1A" d="M364.2,222.4c2.2-1.1,4.3-3.1,5-5.7c0-0.1,0-0.2,0-0.3c0-0.5-0.4-0.8-0.9-0.8h-0.1
		c-2.4,0.2-4.2,0.2-6.1,0.3c-1.8,0.1-3.6,0.1-5.5,0.4c-0.8,0.1-1.6,0.2-2.5,0.3c-1,2.3-1.9,4.7-3,7c1.9,0.5,4,0.7,6,0.7
		C359.6,224.1,362,223.6,364.2,222.4z"/>
	<path fill="#3F3F3F" d="M354.1,223.5c-2.9-10.2-8.1-19.8-12.9-29.3c-7.7-15-12.5-29.8-16-46.3c-4.9-22.6-12.6-48.8-9.9-72.1
		L264,73.9l-51.3,1.9c1.9,16.6-2.5,34.6-5.6,50.9c-3.5,18.4-4.4,38-12.1,55.4c-7.8,17.5-23.5,32.1-23.4,52.4
		c0.1,18.7,10.3,33.3,27.7,40.1c17.7,6.9,36.8,3.7,55.3,3.5c17.9-0.3,35.7,3.3,53.6,1.1c21.8-2.6,47.4-12.9,48.3-38.3
		C356.6,234.9,355.7,229.1,354.1,223.5z"/>
	<path fill="#4D4D4D" d="M330.5,175.5c0.1-2.7-0.1-6-0.6-9.5c-1.1-3.6-2.1-7.3-3.1-11.1c-0.6-2.3-1.2-4.6-1.7-6.9
		c-4.9-22.6-12.6-48.8-10-72.1L264,73.9l-51.3,1.9c1.9,16.6-2.5,34.6-5.6,50.9c-1.8,9.5-2.9,19.2-4.6,28.9
		c-0.9,4.8-1.9,9.7-3.2,14.4c-0.1,2-0.2,3.8-0.1,5.5c0.5,16.7,9,31.6,14.8,46.8c4.5,11.9,9.1,23.8,13.6,35.6c0,0-6.2,10.9-6.7,20.9
		c-0.6,11.4,6.4,21.5,38.8,12.3c0,0,6.6-2.6,4.2-12.9c0.6,0,1.3,0.1,1.9,0.1c-2.4,10.2,4.2,12.8,4.2,12.8c32.2,9.1,39.3-0.7,38.8-12
		c-0.4-10-6.7-21.2-6.7-21.2c4.6-11.9,9.1-23.8,13.6-35.6C321.5,207,330,192.1,330.5,175.5z"/>
	<path fill="#4D4D4D" d="M226.6,32c-2,1.6-5.3,4.2-7.2,5.9c-5.4,4.5-10.6,9-14.9,13.1c-1.6,1.5-3.2,0.6-3.8-2
		c-1.6-7-3.4-13.8-4.8-20.3c-0.5-2.4-1.3-6.2-1.6-8.5c-1-6.2-1.5-11.9-0.9-17.1c0.2-1.9,2.1-3.3,4.1-3.2c5.4,0.5,11,1.9,16.8,4
		c2.1,0.8,5.7,2.2,7.9,3.2c6,2.6,12.1,5.7,18.3,8.9c2.3,1.2,3,3.1,1.3,4.3C237.3,23.7,232,27.7,226.6,32z"/>
	<path fill="#FCBCC2" d="M220.7,22.3c-9.8-12.8-23.2-17.9-23.2-17.9c-0.3,4.1,0,9.1,1,15.2c0.4,2.2,1.1,6,1.6,8.3
		c0.9,4.3,2,8.7,3.1,13.3c0.2,1,0.5,2,0.8,3.1C208,35.8,213.8,28.4,220.7,22.3z"/>
	<path fill="#4D4D4D" d="M303.7,32c2,1.6,5.3,4.2,7.3,5.9c5.4,4.5,10.6,9,14.9,13.1c1.6,1.5,3.2,0.6,3.8-2c1.6-7,3.4-13.8,4.8-20.3
		c0.5-2.4,1.3-6.2,1.6-8.5c1-6.2,1.5-11.9,1-17.1c-0.2-1.9-2.1-3.3-4.1-3.2c-5.4,0.5-11,1.9-16.8,4c-2.1,0.8-5.7,2.2-7.9,3.2
		c-6,2.6-12.1,5.7-18.3,8.9c-2.3,1.2-3,3.1-1.4,4.3C293,23.7,298.3,27.7,303.7,32z"/>
	<path fill="#FCBCC2" d="M309.6,22.3c9.8-12.8,23.2-17.9,23.2-17.9c0.3,4.1,0,9.1-1,15.2c-0.4,2.2-1.1,6-1.6,8.3
		c-0.9,4.3-2,8.7-3.1,13.3c-0.2,1-0.5,2-0.8,3.1C322.3,35.8,316.5,28.4,309.6,22.3z"/>
	<path fill="#4D4D4D" d="M332.8,73.7c0,37.4-30.3,67.7-67.7,67.7c-37.4,0-67.7-30.3-67.7-67.7c0-37.4,30.3-67.6,67.7-67.6
		C302.5,6,332.8,36.3,332.8,73.7z"/>
	<path fill="#E5E5E5" d="M250.8,71c0,6.4-5.2,11.5-11.5,11.5c-6.4,0-11.5-5.2-11.5-11.5s5.2-11.5,11.5-11.5
		C245.6,59.5,250.8,64.6,250.8,71z"/>
	<path d="M239.2,83.3c-6.8,0-12.3-5.5-12.3-12.3c0-6.8,5.5-12.3,12.3-12.3c6.8,0,12.3,5.5,12.3,12.3C251.5,77.8,246,83.3,239.2,83.3
		z M239.2,60.3c-5.9,0-10.8,4.8-10.8,10.8c0,5.9,4.8,10.8,10.8,10.8c5.9,0,10.8-4.8,10.8-10.8C250,65.1,245.1,60.3,239.2,60.3z"/>
	<path d="M245.9,67.7c0,3.8-3.1,6.9-6.9,6.9c-3.8,0-6.9-3.1-6.9-6.9c0-3.8,3.1-6.9,6.9-6.9C242.8,60.9,245.9,64,245.9,67.7z"/>
	<path fill="#FFFFFF" d="M239.9,66.4c0,1.4-1.1,2.5-2.5,2.5s-2.5-1.1-2.5-2.5c0-1.4,1.1-2.5,2.5-2.5S239.9,65,239.9,66.4z"/>
	<path fill="#E5E5E5" d="M302.6,71c0,6.4-5.2,11.5-11.5,11.5c-6.4,0-11.5-5.2-11.5-11.5s5.2-11.5,11.5-11.5
		C297.5,59.5,302.6,64.6,302.6,71z"/>
	<path d="M291.1,83.3c-6.8,0-12.3-5.5-12.3-12.3c0-6.8,5.5-12.3,12.3-12.3c6.8,0,12.3,5.5,12.3,12.3
		C303.4,77.8,297.9,83.3,291.1,83.3z M291.1,60.3c-5.9,0-10.8,4.8-10.8,10.8c0,5.9,4.8,10.8,10.8,10.8c5.9,0,10.8-4.8,10.8-10.8
		C301.8,65.1,297,60.3,291.1,60.3z"/>
	<path d="M297.8,67.7c0,3.8-3.1,6.9-6.9,6.9c-3.8,0-6.9-3.1-6.9-6.9c0-3.8,3.1-6.9,6.9-6.9C294.7,60.9,297.8,64,297.8,67.7z"/>
	<path fill="#FFFFFF" d="M291.8,66.4c0,1.4-1.1,2.5-2.5,2.5s-2.5-1.1-2.5-2.5c0-1.4,1.1-2.5,2.5-2.5S291.8,65,291.8,66.4z"/>
	<path fill="#666666" d="M251.8,90.2c0,0.8-0.6,1.4-1.4,1.4c-0.8,0-1.4-0.6-1.4-1.4s0.6-1.4,1.4-1.4
		C251.1,88.8,251.8,89.4,251.8,90.2z"/>
	<path fill="#666666" d="M250.3,98.6c0,0.8-0.6,1.4-1.4,1.4c-0.8,0-1.4-0.6-1.4-1.4c0-0.8,0.6-1.4,1.4-1.4
		C249.7,97.1,250.3,97.8,250.3,98.6z"/>
	<path fill="#666666" d="M244.2,93.1c0,0.8-0.6,1.4-1.4,1.4c-0.8,0-1.4-0.6-1.4-1.4c0-0.8,0.6-1.4,1.4-1.4
		C243.6,91.6,244.2,92.3,244.2,93.1z"/>
	<ellipse fill="#666666" cx="238.4" cy="98.6" rx="1.4" ry="1.4"/>
	<path fill="#666666" d="M278.5,90.2c0,0.8,0.6,1.4,1.4,1.4c0.8,0,1.4-0.6,1.4-1.4s-0.6-1.4-1.4-1.4
		C279.2,88.8,278.5,89.4,278.5,90.2z"/>
	<path fill="#666666" d="M280,98.6c0,0.8,0.6,1.4,1.4,1.4c0.8,0,1.4-0.6,1.4-1.4c0-0.8-0.6-1.4-1.4-1.4
		C280.6,97.1,280,97.8,280,98.6z"/>
	<path fill="#666666" d="M286.1,93.1c0,0.8,0.6,1.4,1.4,1.4c0.8,0,1.4-0.6,1.4-1.4c0-0.8-0.6-1.4-1.4-1.4
		C286.7,91.6,286.1,92.3,286.1,93.1z"/>
	<path fill="#666666" d="M290.5,98.6c0,0.8,0.6,1.4,1.4,1.4c0.8,0,1.4-0.6,1.4-1.4c0-0.8-0.6-1.4-1.4-1.4
		C291.1,97.1,290.5,97.8,290.5,98.6z"/>
	<path d="M274.2,92.4c-0.5,2.7-3.8,5-7.5,5h-3.1c-3.6,0-7-2.3-7.5-5c-0.5-2.8,2.1-5,5.7-5h6.6C272.1,87.4,274.7,89.6,274.2,92.4z"/>
	<path d="M245.8,108.5c-5.9,0-11.5-2.7-16.6-8.1c-0.6-0.6-0.6-1.6,0.1-2.2c0.6-0.6,1.6-0.6,2.2,0.1c4.7,4.9,9.8,7.3,15.1,7.1
		c10.2-0.4,18.1-10.3,18.2-10.4c0.5-0.7,1.5-0.8,2.2-0.2c0.7,0.5,0.8,1.5,0.2,2.2c-0.4,0.4-8.9,11-20.5,11.5
		C246.4,108.5,246.1,108.5,245.8,108.5z"/>
	<path d="M284.5,108.5c-0.3,0-0.6,0-0.9,0c-11.6-0.5-20.1-11.1-20.5-11.5c-0.5-0.7-0.4-1.7,0.2-2.2c0.7-0.5,1.6-0.4,2.2,0.2
		c0.1,0.1,8,9.9,18.2,10.4c5.3,0.2,10.4-2.1,15.1-7.1c0.6-0.6,1.6-0.7,2.2-0.1c0.6,0.6,0.6,1.6,0.1,2.2
		C296,105.7,290.4,108.5,284.5,108.5z"/>
	<path d="M265.9,111.8c-7.1,0-12.6-5.5-12.8-5.7c-0.6-0.6-0.6-1.6,0-2.2c0.6-0.6,1.6-0.6,2.2,0c0.1,0.1,5.1,5,11,4.8
		c3.2-0.1,6.1-1.7,8.8-4.7c0.6-0.6,1.6-0.7,2.2-0.1c0.6,0.6,0.7,1.5,0.1,2.2c-3.2,3.7-6.9,5.6-11,5.8
		C266.1,111.8,266,111.8,265.9,111.8z"/>
	<path fill="#B3B3B3" d="M266.2,108.7c2.6-0.1,5.1-1.2,7.3-3.2c-3.7-2-6.6-4.6-8.4-6.4c-1.8,1.8-4.6,4.3-8.2,6.3
		C258.9,106.8,262.4,108.9,266.2,108.7z"/>
	<path fill="#1A1A1A" d="M211.2,59.7c3,0,6-0.6,8.8-1.6c2.9-1.1,5.6-2.8,7.7-5.4c0.1-0.1,0.1-0.2,0.2-0.3c0.2-0.5-0.1-1-0.6-1.2h0
		c-3.1-1.1-5.8-1.7-8.4-2.1c-2.6-0.5-5.1-0.7-7.6-0.9c-2.5-0.1-5-0.1-7.7,0.3c-0.5,0.1-1.1,0.2-1.6,0.3c-1,2.6-1.9,5.2-2.6,8
		c1,0.6,2,1,3,1.5C205.2,59.3,208.2,59.8,211.2,59.7z"/>
	<path fill="#1A1A1A" d="M204.5,86.8c3.4,0.1,6.8-0.8,9.8-2.5c6.1-3.3,10.6-9.7,10.4-16.5c0-0.2,0-0.3-0.1-0.4
		c-0.3-0.4-0.8-0.5-1.2-0.3l0,0c-2.8,1.7-5.1,3.2-7.3,4.5c-2.2,1.2-4.3,2.3-6.5,3.2c-2.2,0.9-4.4,1.8-6.7,2.9
		c-1.6,0.8-3.3,1.6-5.2,2.6c0.2,1.8,0.4,3.5,0.7,5.2c0.4,0.1,0.7,0.3,1.1,0.4C201.1,86.5,202.8,86.7,204.5,86.8z"/>
	<path fill="#1A1A1A" d="M226.6,102.6c2-3.2,3.1-6.8,2.7-10.6c0-0.1,0-0.2-0.1-0.3c-0.2-0.5-0.8-0.6-1.3-0.4l0,0
		c-3.3,1.8-5.7,3.5-8.1,5c-2.3,1.5-4.4,2.9-6.6,4.2c-2.6,1.5-5.3,2.9-8.3,4.2c1.4,2.7,2.9,5.2,4.6,7.7c3-0.2,6-1.1,8.8-2.5
		C221.7,108.3,224.6,105.7,226.6,102.6z"/>
	<path fill="#1A1A1A" d="M312.1,51.2L312.1,51.2c-0.5,0.2-0.8,0.7-0.6,1.2c0,0.1,0.1,0.2,0.2,0.3c2.1,2.7,4.9,4.3,7.7,5.4
		c2.9,1.1,5.9,1.6,8.8,1.6c1,0,2,0,3-0.2c-0.8-3.9-2-7.7-3.5-11.4c-2.4,0.1-4.8,0.4-7.2,0.8C317.9,49.5,315.2,50.1,312.1,51.2z"/>
	<path fill="#1A1A1A" d="M323.4,71.6c-2.2-1.3-4.5-2.8-7.3-4.5l0,0c-0.4-0.3-1-0.1-1.2,0.3c-0.1,0.1-0.1,0.3-0.1,0.4
		c-0.2,6.8,4.3,13.2,10.4,16.5c2,1.1,4.1,1.9,6.3,2.2c0.7-3.4,1.1-6.9,1.2-10.5c-0.9-0.4-1.9-0.7-2.8-1.1
		C327.7,73.9,325.6,72.8,323.4,71.6z"/>
	<path fill="#1A1A1A" d="M319.5,96.3c-2.4-1.5-4.7-3.2-8-5l0,0c-0.4-0.3-1-0.1-1.2,0.4c-0.1,0.1-0.1,0.2-0.1,0.3
		c-0.4,3.9,0.7,7.5,2.7,10.6c2,3.1,4.9,5.7,8.3,7.4c0.3,0.1,0.5,0.2,0.8,0.4c1.9-3,3.6-6.1,5-9.3c-0.2-0.1-0.5-0.3-0.7-0.4
		C324,99.2,321.9,97.9,319.5,96.3z"/>
	<path fill="#1A1A1A" d="M233.9,28.7c0.3,3.1,1,6.3,2.3,9.3c1.3,2.9,3.2,5.7,5.8,7.7c0.2,0.1,0.3,0.2,0.5,0.2c0.5,0,0.9-0.4,0.9-0.9
		v0c-0.1-3.2-0.2-6-0.2-8.7l-0.3-8.1c-0.1-2.7-0.2-5.4-0.6-8.2c-0.4-2.8-0.8-5.7-1.9-8.8l0-0.1c0-0.1-0.1-0.2-0.2-0.3
		c-0.6,0.2-1.3,0.5-1.9,0.8c-1.9,2.4-3,5.1-3.7,7.9C233.8,22.4,233.6,25.5,233.9,28.7z"/>
	<path fill="#1A1A1A" d="M248.7,28.3c0.5,3.4,1.3,6.7,2.3,10.1c1,3.3,2.3,6.6,4.1,9.9c0.1,0.2,0.3,0.3,0.5,0.4
		c0.4,0.1,0.9-0.1,1.1-0.5c1.1-3.6,1.7-7,2-10.5c0.3-3.5,0.3-6.9,0.2-10.3c-0.2-3.4-0.4-6.8-1.4-10.2c-1-3.3-2.3-6.6-5.1-9.8l0,0
		c-0.5,0.1-1,0.2-1.5,0.3c-2,3.6-2.6,7.1-2.9,10.5C247.7,21.5,248.2,24.9,248.7,28.3z"/>
	<path fill="#1A1A1A" d="M267.8,24.5c0.1,3,0.3,5.9,0.2,8.8c-0.1,2.9-0.1,5.8-1.3,8.4l0,0.1c-0.1,0.2-0.1,0.5,0,0.7
		c0.2,0.4,0.7,0.5,1.1,0.3c1.5-0.9,2.7-2.4,3.6-3.9c0.9-1.5,1.5-3.1,2-4.7c1-3.2,1.4-6.5,1.5-9.7c0.1-3.2,0.1-6.4-0.5-9.6
		c-0.6-3-1.6-5.9-3.5-8.7c-0.6-0.1-1.2-0.1-1.8-0.1c-1.2,3.3-1.5,6.3-1.6,9.4C267.4,18.6,267.7,21.5,267.8,24.5z"/>
	<path fill="#1A1A1A" d="M286.4,9.8c-1.8,2.6-2.6,5.1-3.1,7.5c-0.5,2.4-0.5,4.8-0.5,7.2c0,2.4,0,4.8,0.1,7.2
		c0.1,2.4,0.3,4.8,0.4,7.5v0.1c0,0.2,0,0.3,0.2,0.5c0.3,0.4,0.8,0.4,1.2,0.2c2.4-1.8,3.9-4.4,5-6.9c1.1-2.5,1.7-5.2,2.1-7.8
		c0.3-2.6,0.5-5.3,0-7.9c-0.5-2.4-1.4-4.9-3.3-7.2c-0.6-0.2-1.1-0.4-1.7-0.6C286.6,9.6,286.5,9.7,286.4,9.8L286.4,9.8z"/>
	<path fill="#808080" d="M245.4,89.8c-4.1-2.7-8.9-5.2-14.2-7.2c-5.3-2-10.5-3.4-15.5-4.1c-5.5-0.8-11-0.8-16.2,0.1
		c-5.7,1-10.8,3.2-14.8,6.2c-0.2,0.1-0.2,0.3-0.1,0.5c0.1,0.2,0.3,0.2,0.5,0.2c4.8-2.1,9.9-3.4,14.9-3.9c4.6-0.5,9.6-0.4,15.3,0.3
		c4.9,0.7,9.9,1.8,15.1,3.3c5.4,1.6,10.2,3.4,14.7,5.3l0.2,0h0c0.2,0,0.4-0.2,0.4-0.4C245.7,90,245.6,89.9,245.4,89.8z"/>
	<path fill="#808080" d="M239.7,93.9c-3.9-1.1-8.1-1.8-13.1-2.1c-4.4-0.2-8.9,0-13.3,0.6c-4.8,0.8-9.1,2.1-12.9,3.8
		c-4.4,2.1-8.1,4.9-10.7,8.1c-0.1,0.2-0.1,0.4,0,0.5c0.1,0.1,0.2,0.1,0.3,0.1l0.2-0.1c3.4-2.4,7.2-4.5,11.3-6
		c3.7-1.4,7.8-2.4,12.3-3.2c5.5-0.9,11.5-1.3,18.4-1.3c2.3,0,4.7,0,7.4,0.1h0h0c0.2,0,0.4-0.2,0.4-0.4C240,94,239.9,93.9,239.7,93.9
		z"/>
	<path fill="#808080" d="M239.6,100.1c-3.8-0.4-7.9-0.3-12,0.2c-4.2,0.5-8.2,1.4-11.8,2.6c-4.4,1.5-7.9,3.4-10.8,5.8
		c-3.4,2.7-5.9,6.2-6.9,10c-0.1,0.2,0,0.4,0.2,0.5l0.1,0c0.1,0,0.3-0.1,0.3-0.2c1.6-3.3,4.1-6.2,7.5-8.7c2.9-2,6.3-3.7,10.3-5.1
		c3.3-1.1,7-2,11.4-2.8c4.3-0.7,8.2-1.2,11.7-1.5c0.2,0,0.4-0.2,0.4-0.4C240,100.3,239.8,100.1,239.6,100.1z"/>
	<path fill="#808080" d="M284.9,89.8c4.1-2.7,8.9-5.2,14.2-7.2c5.2-2,10.5-3.4,15.5-4.1c5.5-0.8,11-0.8,16.2,0.1
		c5.7,1,10.8,3.2,14.8,6.2c0.2,0.1,0.2,0.3,0.1,0.5c-0.1,0.2-0.3,0.2-0.5,0.2c-4.8-2.1-9.8-3.4-14.9-3.9c-4.6-0.5-9.6-0.4-15.3,0.3
		c-4.9,0.7-9.9,1.8-15.1,3.3c-5.4,1.6-10.2,3.4-14.7,5.3l-0.2,0h0c-0.2,0-0.4-0.2-0.4-0.4C284.6,90,284.7,89.9,284.9,89.8z"/>
	<path fill="#808080" d="M290.6,93.9c3.9-1.1,8.1-1.8,13.1-2.1c4.4-0.2,8.9,0,13.3,0.6c4.8,0.8,9.1,2.1,12.9,3.8
		c4.4,2.1,8.1,4.9,10.7,8.1c0.1,0.2,0.1,0.4,0,0.5c-0.1,0.1-0.2,0.1-0.3,0.1l-0.2-0.1c-3.4-2.4-7.2-4.5-11.3-6
		c-3.7-1.4-7.7-2.4-12.3-3.2c-5.5-0.9-11.6-1.3-18.4-1.3c-2.3,0-4.7,0-7.4,0.1h0h0c-0.2,0-0.4-0.2-0.4-0.4
		C290.3,94,290.5,93.9,290.6,93.9z"/>
	<path fill="#808080" d="M290.7,100.1c3.9-0.4,7.9-0.3,12.1,0.2c4.2,0.5,8.2,1.4,11.8,2.6c4.4,1.5,7.9,3.4,10.8,5.8
		c3.4,2.7,5.9,6.2,6.9,10c0.1,0.2-0.1,0.4-0.2,0.5l-0.1,0c-0.1,0-0.3-0.1-0.3-0.2c-1.6-3.3-4.1-6.2-7.5-8.7c-2.9-2-6.3-3.7-10.4-5.1
		c-3.3-1.1-7-2-11.3-2.8c-4.3-0.7-8.1-1.2-11.7-1.5c-0.2,0-0.4-0.2-0.4-0.4C290.3,100.3,290.5,100.1,290.7,100.1z"/>
	<path fill="#3A3A3A" d="M247.1,139.4c0,0,8.6,12.4,39.2-1.2C286.3,138.2,259.8,145.3,247.1,139.4z"/>
	<path fill="#3A3A3A" d="M243.5,210.4c0,0,20.4,47.8,21.4,61.8C264.8,272.2,259.3,219.3,243.5,210.4z"/>
	<path fill="#3A3A3A" d="M267.5,260.8c0,0,6.5-52.9,21.9-75.4L267.5,260.8z"/>
	<path fill="#1A1A1A" d="M220.3,166.1c6.4,0.7,12.8,0.4,19.1-0.9c6.2-1.4,12.3-3.8,17.5-7.7c0.3-0.3,0.5-0.6,0.6-1.1
		c0.1-0.8-0.6-1.5-1.4-1.6h0c-6.3-0.4-12-0.3-17.7-0.4c-5.7-0.1-11.2-0.3-16.9-0.6c-6-0.4-12.1-1.1-18.3-1.9
		c-0.2,1.3-0.4,2.5-0.6,3.8c-0.3,1.9-0.7,3.8-1.1,5.7c0.2,0.1,0.3,0.1,0.5,0.2C207.7,163.9,214,165.4,220.3,166.1z"/>
	<path fill="#1A1A1A" d="M249.8,285.7c0.3-0.3,0.6-0.6,0.6-1.1c0.1-0.8-0.6-1.5-1.4-1.6h0c-6.3-0.4-12-0.3-17.7-0.5
		c-3.5-0.1-6.9-0.2-10.3-0.4c0.5,5.2,3.1,9.7,9.6,11.6c0.6-0.1,1.2-0.2,1.8-0.3C238.6,292,244.7,289.6,249.8,285.7z"/>
	<path fill="#1A1A1A" d="M249.8,241.4c0.3-0.2,0.6-0.6,0.6-1.1c0.1-0.8-0.6-1.6-1.4-1.6h0c-6.3-0.4-12-0.3-17.7-0.5
		c-3.8-0.1-7.6-0.2-11.3-0.4c1.6,4.1,3.1,8.2,4.7,12.3c2.6-0.2,5.2-0.5,7.7-1C238.6,247.7,244.7,245.4,249.8,241.4z"/>
	<path fill="#1A1A1A" d="M306,158c-5.7,2.3-11.5,4.1-17.7,6.2l-0.1,0c-0.5,0.2-0.9,0.6-1,1.1c-0.2,0.8,0.3,1.6,1.1,1.8
		c13.2,2.8,27.2,0.2,39.5-5.4c0.3-0.1,0.5-0.3,0.8-0.4c-0.6-2.1-1.2-4.2-1.8-6.4c-0.5-2-1-3.9-1.4-5.9c-1,0.5-1.9,1.1-2.9,1.6
		C317.1,153.3,311.6,155.8,306,158z"/>
	<path fill="#1A1A1A" d="M280.5,273L280.5,273c-0.5,0.2-0.9,0.6-1,1.1c-0.2,0.8,0.3,1.6,1.1,1.8c9.1,1.9,18.6,1.2,27.6-1.1
		c-0.7-3.9-2-7.7-3.3-10.7c-2.2,1-4.4,1.9-6.7,2.8C292.6,269.1,286.7,271,280.5,273z"/>
	<path fill="#1A1A1A" d="M229.4,206.4c7.4,0.5,14.8,0.3,22.2-1.1c7.4-1.3,14.8-3.6,21.2-7.9c0.4-0.2,0.6-0.7,0.7-1.1
		c0.1-0.8-0.6-1.5-1.4-1.6h0l-21.1-1.5l-20.5-1.7c-6.9-0.6-13.8-1.1-20.8-1.3c-2.7-0.1-5.4-0.1-8.2,0c1.1,4,2.5,7.9,4,11.8
		c0.7,0.2,1.4,0.5,2.1,0.7C214.7,204.7,222,205.9,229.4,206.4z"/>
	<path fill="#1A1A1A" d="M316.5,204.1c-7.3,1.4-14.6,2.5-22.2,3.7c-0.5,0.1-1,0.4-1.2,0.9c-0.3,0.8,0.1,1.6,0.9,1.9
		c7.5,2.9,15.5,3.9,23.5,3.9c0.5,0,1,0,1.4,0c1.7-4,3.4-7.9,5-12C321.4,203,319,203.6,316.5,204.1z"/>
	<polygon fill="#B2783A" points="57.6,157.5 338,225.2 335.7,426.6 69.2,340.4 	"/>
	<polygon fill="#BE894A" points="337.2,224 468.4,157.6 461.1,341.9 335.1,428.6 	"/>
	<polygon fill="#986731" points="337.2,225.4 466.8,159.4 534.5,81.7 390.9,139.6 	"/>
	<polygon fill="#BE894A" points="4.4,87.1 279.7,151.9 339.1,226 57.6,157.7 	"/>
</g>
</svg>
